<?xml version="1.0" encoding="UTF-8" standalone="no"?> <svg id="Layer_1" data-name="Layer 1" xmlns="http://www.w3.org/2000/svg" viewBox="0 0 512 512"><defs><style>.cls-1{fill:#2d4a60;}.cls-2{fill:#263f52;}.cls-3{fill:#8fa5a5;}.cls-4{fill:#fac100;}</style></defs><title>RAM</title><rect class="cls-1" x="42.667" y="106.667" width="426.667" height="74.667" rx="10.667" ry="10.667"/><rect class="cls-2" x="21.333" y="160" width="469.333" height="74.667" rx="10.667" ry="10.667"/><path class="cls-1" d="M501.333,277.333A10.667,10.667,0,0,0,512,266.667V224a10.667,10.667,0,0,0-10.667-10.667H10.667A10.667,10.667,0,0,0,0,224v42.667a10.667,10.667,0,0,0,10.667,10.667,5.333,5.333,0,0,1,0,10.667A10.667,10.667,0,0,0,0,298.667v96a10.667,10.667,0,0,0,10.667,10.667H501.333A10.667,10.667,0,0,0,512,394.667v-96A10.667,10.667,0,0,0,501.333,288a5.333,5.333,0,0,1,0-10.667Z"/><rect class="cls-3" x="64" y="256" width="32" height="74.667" rx="5.333" ry="5.333"/><rect class="cls-3" x="138.667" y="256" width="32" height="74.667" rx="5.333" ry="5.333"/><rect class="cls-3" x="202.667" y="256" width="32" height="74.667" rx="5.333" ry="5.333"/><rect class="cls-3" x="277.333" y="256" width="32" height="74.667" rx="5.333" ry="5.333"/><rect class="cls-3" x="341.333" y="256" width="32" height="74.667" rx="5.333" ry="5.333"/><rect class="cls-3" x="416" y="256" width="32" height="74.667" rx="5.333" ry="5.333"/><path class="cls-4" d="M96,405.333H74.667V368A5.333,5.333,0,0,1,80,362.667H90.667A5.333,5.333,0,0,1,96,368Z"/><path class="cls-4" d="M138.667,405.333H117.333V368a5.333,5.333,0,0,1,5.333-5.333h10.667A5.333,5.333,0,0,1,138.667,368Z"/><path class="cls-4" d="M181.333,405.333H160V368a5.333,5.333,0,0,1,5.333-5.333H176A5.333,5.333,0,0,1,181.333,368Z"/><path class="cls-4" d="M224,405.333H202.667V368A5.333,5.333,0,0,1,208,362.667h10.667A5.333,5.333,0,0,1,224,368Z"/><path class="cls-4" d="M266.667,405.333H245.333V368a5.333,5.333,0,0,1,5.333-5.333h10.667A5.333,5.333,0,0,1,266.667,368Z"/><path class="cls-4" d="M309.333,405.333H288V368a5.333,5.333,0,0,1,5.333-5.333H304A5.333,5.333,0,0,1,309.333,368Z"/><path class="cls-4" d="M352,405.333H330.667V368A5.333,5.333,0,0,1,336,362.667h10.667A5.333,5.333,0,0,1,352,368Z"/><path class="cls-4" d="M394.667,405.333H373.333V368a5.333,5.333,0,0,1,5.333-5.333h10.667A5.333,5.333,0,0,1,394.667,368Z"/><path class="cls-4" d="M437.333,405.333H416V368a5.333,5.333,0,0,1,5.333-5.333H432A5.333,5.333,0,0,1,437.333,368Z"/><path class="cls-4" d="M480,405.333H458.667V368A5.333,5.333,0,0,1,464,362.667h10.667A5.333,5.333,0,0,1,480,368Z"/><path class="cls-4" d="M53.333,405.333H32V368a5.333,5.333,0,0,1,5.333-5.333H48A5.333,5.333,0,0,1,53.333,368Z"/></svg>